<svg viewBox="0 0 64 66" fill="none" xmlns="http://www.w3.org/2000/svg">
<path d="M17.2783 49.4023L15.5399 53.668H15.022L13.2835 49.4023H13.7449C13.7965 49.4023 13.8382 49.4152 13.87 49.441C13.9017 49.4668 13.9255 49.4995 13.9414 49.5392L15.144 52.5487C15.1698 52.6162 15.1946 52.6896 15.2184 52.769C15.2442 52.8484 15.2671 52.9317 15.2869 53.019C15.3067 52.9317 15.3276 52.8484 15.3494 52.769C15.3712 52.6896 15.3951 52.6162 15.4208 52.5487L16.6205 49.5392C16.6324 49.5055 16.6552 49.4747 16.6889 49.4469C16.7247 49.4172 16.7673 49.4023 16.8169 49.4023H17.2783ZM21.0663 53.1976L21.0633 53.668H18.4348V49.4023H21.0633V49.8726H19.0123V51.2896H20.6734V51.742H19.0123V53.1976H21.0663ZM25.9222 49.4023V53.668H25.3448V51.7271H23.0437V53.668H22.4662V49.4023H23.0437V51.3044H25.3448V49.4023H25.9222ZM28.1856 53.668H27.6081V49.4023H28.1856V53.668ZM32.8667 52.7869C32.8984 52.7869 32.9262 52.7998 32.95 52.8256L33.1792 53.0726C33.0046 53.275 32.7922 53.4328 32.5422 53.5459C32.2941 53.659 31.9935 53.7156 31.6402 53.7156C31.3346 53.7156 31.0568 53.663 30.8068 53.5578C30.5567 53.4507 30.3434 53.3018 30.1668 53.1113C29.9901 52.9188 29.8532 52.6886 29.756 52.4207C29.6587 52.1528 29.6101 51.8581 29.6101 51.5366C29.6101 51.2151 29.6607 50.9204 29.7619 50.6525C29.8631 50.3846 30.005 50.1544 30.1876 49.9619C30.3722 49.7694 30.5924 49.6206 30.8484 49.5154C31.1044 49.4082 31.3872 49.3547 31.6968 49.3547C32.0004 49.3547 32.2683 49.4033 32.5005 49.5005C32.7327 49.5978 32.9371 49.7297 33.1137 49.8964L32.9232 50.1614C32.9113 50.1812 32.8954 50.1981 32.8756 50.212C32.8577 50.2239 32.8329 50.2298 32.8012 50.2298C32.7655 50.2298 32.7218 50.211 32.6702 50.1733C32.6186 50.1336 32.5511 50.0899 32.4678 50.0423C32.3844 49.9947 32.2802 49.952 32.1552 49.9143C32.0302 49.8746 31.8764 49.8548 31.6938 49.8548C31.4735 49.8548 31.2721 49.8935 31.0895 49.9709C30.907 50.0463 30.7492 50.1564 30.6162 50.3013C30.4853 50.4461 30.3831 50.6228 30.3096 50.8311C30.2362 51.0395 30.1995 51.2747 30.1995 51.5366C30.1995 51.8025 30.2372 52.0397 30.3126 52.2481C30.39 52.4564 30.4942 52.6331 30.6252 52.7779C30.7581 52.9208 30.9139 53.03 31.0925 53.1054C31.2731 53.1808 31.4676 53.2185 31.676 53.2185C31.803 53.2185 31.9171 53.2115 32.0183 53.1976C32.1215 53.1818 32.2157 53.158 32.3011 53.1262C32.3884 53.0944 32.4688 53.0548 32.5422 53.0071C32.6176 52.9575 32.692 52.899 32.7655 52.8315C32.7992 52.8017 32.8329 52.7869 32.8667 52.7869ZM36.0903 53.2096C36.2669 53.2096 36.4247 53.1798 36.5636 53.1202C36.7025 53.0607 36.8196 52.9774 36.9148 52.8702C37.0121 52.763 37.0855 52.635 37.1351 52.4862C37.1867 52.3374 37.2125 52.1736 37.2125 51.995V49.4023H37.787V51.995C37.787 52.2411 37.7473 52.4693 37.668 52.6797C37.5906 52.89 37.4784 53.0726 37.3316 53.2274C37.1867 53.3802 37.0091 53.5003 36.7988 53.5876C36.5884 53.6749 36.3522 53.7186 36.0903 53.7186C35.8283 53.7186 35.5922 53.6749 35.3818 53.5876C35.1715 53.5003 34.9929 53.3802 34.846 53.2274C34.6992 53.0726 34.586 52.89 34.5067 52.6797C34.4293 52.4693 34.3906 52.2411 34.3906 51.995V49.4023H34.9651V51.9921C34.9651 52.1707 34.9899 52.3344 35.0395 52.4832C35.0911 52.6321 35.1645 52.7601 35.2598 52.8672C35.357 52.9744 35.4751 53.0587 35.614 53.1202C35.7549 53.1798 35.9137 53.2096 36.0903 53.2096ZM41.8375 53.1828V53.668H39.4174V49.4023H39.9919V53.1828H41.8375ZM45.3362 52.0843L44.6664 50.3489C44.6466 50.2973 44.6258 50.2378 44.6039 50.1703C44.5821 50.1008 44.5613 50.0274 44.5414 49.95C44.4997 50.1108 44.4571 50.2447 44.4134 50.3519L43.7436 52.0843H45.3362ZM46.5388 53.668H46.0923C46.0407 53.668 45.999 53.6551 45.9673 53.6293C45.9355 53.6035 45.9117 53.5707 45.8958 53.531L45.4969 52.5011H43.5829L43.184 53.531C43.1721 53.5668 43.1493 53.5985 43.1155 53.6263C43.0818 53.6541 43.0401 53.668 42.9905 53.668H42.544L44.2497 49.4023H44.8331L46.5388 53.668ZM48.8771 51.4682C49.0438 51.4682 49.1906 51.4483 49.3176 51.4086C49.4466 51.3669 49.5538 51.3094 49.6391 51.236C49.7264 51.1606 49.7919 51.0713 49.8356 50.9681C49.8793 50.8649 49.9011 50.7508 49.9011 50.6257C49.9011 50.3717 49.8177 50.1802 49.651 50.0512C49.4843 49.9222 49.2343 49.8577 48.9009 49.8577H48.2698V51.4682H48.8771ZM50.8477 53.668H50.3357C50.2305 53.668 50.1531 53.6273 50.1035 53.5459L48.9962 52.0218C48.9624 51.9742 48.9257 51.9405 48.886 51.9206C48.8483 51.8988 48.7888 51.8879 48.7074 51.8879H48.2698V53.668H47.6953V49.4023H48.9009C49.1708 49.4023 49.404 49.4301 49.6004 49.4856C49.7969 49.5392 49.9586 49.6176 50.0856 49.7208C50.2146 49.824 50.3099 49.949 50.3714 50.0959C50.4329 50.2407 50.4637 50.4035 50.4637 50.5841C50.4637 50.7349 50.4399 50.8758 50.3922 51.0068C50.3446 51.1377 50.2752 51.2558 50.1839 51.361C50.0946 51.4642 49.9844 51.5525 49.8535 51.6259C49.7245 51.6993 49.5776 51.7549 49.4129 51.7926C49.4863 51.8343 49.5498 51.8948 49.6034 51.9742L50.8477 53.668ZM18.2437 57.8726V59.364H19.997V59.8343H18.2437V61.668H17.6662V57.4023H20.2947V57.8726H18.2437ZM24.048 61.1828V61.668H21.6279V57.4023H22.2024V61.1828H24.048ZM27.9128 61.1976L27.9098 61.668H25.2814V57.4023H27.9098V57.8726H25.8588V59.2896H27.5199V59.742H25.8588V61.1976H27.9128ZM32.5663 61.668H31.9948C31.9511 61.668 31.9164 61.6571 31.8906 61.6352C31.8668 61.6114 31.847 61.5856 31.8311 61.5578L30.688 59.7658C30.6721 59.8135 30.6543 59.8541 30.6344 59.8879L29.5211 61.5578C29.5013 61.5856 29.4795 61.6114 29.4556 61.6352C29.4338 61.6571 29.4031 61.668 29.3634 61.668H28.8275L30.2951 59.4771L28.8871 57.4023H29.4616C29.5033 57.4023 29.534 57.4092 29.5539 57.4231C29.5737 57.437 29.5916 57.4569 29.6075 57.4827L30.7208 59.1913C30.7346 59.1496 30.7555 59.104 30.7833 59.0544L31.8341 57.4946C31.8499 57.4668 31.8688 57.445 31.8906 57.4291C31.9124 57.4112 31.9382 57.4023 31.968 57.4023H32.5187L31.1048 59.4503L32.5663 61.668ZM34.3519 61.668H33.7744V57.4023H34.3519V61.668ZM37.5356 61.2096C37.7004 61.2096 37.8422 61.1907 37.9613 61.153C38.0804 61.1153 38.1776 61.0627 38.253 60.9952C38.3304 60.9258 38.387 60.8444 38.4227 60.7511C38.4584 60.6559 38.4763 60.5517 38.4763 60.4386C38.4763 60.2183 38.3979 60.0447 38.2411 59.9176C38.0844 59.7887 37.8492 59.7242 37.5356 59.7242H36.6128V61.2096H37.5356ZM36.6128 57.8577V59.3134H37.3749C37.5376 59.3134 37.6785 59.2955 37.7976 59.2598C37.9186 59.2241 38.0179 59.1744 38.0953 59.1109C38.1746 59.0474 38.2332 58.971 38.2709 58.8817C38.3086 58.7904 38.3275 58.6912 38.3275 58.5841C38.3275 58.332 38.252 58.1485 38.1012 58.0334C37.9504 57.9163 37.7162 57.8577 37.3987 57.8577H36.6128ZM37.3987 57.4023C37.6607 57.4023 37.8859 57.4281 38.0744 57.4797C38.2649 57.5313 38.4207 57.6047 38.5418 57.7C38.6648 57.7952 38.7551 57.9123 38.8127 58.0512C38.8702 58.1882 38.899 58.3429 38.899 58.5156C38.899 58.6208 38.8821 58.722 38.8484 58.8192C38.8166 58.9145 38.768 59.0038 38.7025 59.0871C38.637 59.1705 38.5537 59.2459 38.4525 59.3134C38.3533 59.3789 38.2362 59.4324 38.1012 59.4741C38.4148 59.5336 38.6499 59.6458 38.8067 59.8105C38.9655 59.9732 39.0448 60.1875 39.0448 60.4535C39.0448 60.634 39.0111 60.7988 38.9436 60.9476C38.8782 61.0964 38.7809 61.2244 38.6519 61.3316C38.5249 61.4388 38.3681 61.5221 38.1816 61.5816C37.9951 61.6392 37.7827 61.668 37.5446 61.668H36.0383V57.4023H37.3987ZM42.9026 61.1828V61.668H40.4825V57.4023H41.057V61.1828H42.9026ZM46.7675 61.1976L46.7645 61.668H44.136V57.4023H46.7645V57.8726H44.7135V59.2896H46.3745V59.742H44.7135V61.1976H46.7675Z" fill="#676F8F"/>
<path d="M31.5155 18.558C31.5155 18.0922 31.1811 17.6937 30.7224 17.6129L21.1316 15.9229C21.0211 15.9034 20.9081 15.9034 20.7976 15.923L10.9954 17.66C10.5371 17.7412 10.2032 18.1395 10.2032 18.6049V30.4353C10.2032 30.5032 10.2104 30.5709 10.2247 30.6373C10.8968 33.7585 13.6704 35.9701 16.0135 37.3479C17.216 38.055 18.3757 38.5835 19.2328 38.9351C19.6624 39.1112 20.0186 39.244 20.2694 39.3334C20.3949 39.3781 20.4942 39.412 20.5634 39.4352C20.5979 39.4467 20.625 39.4556 20.644 39.4618L20.6665 39.469L20.6731 39.4711L20.6753 39.4718L20.676 39.4721C20.6764 39.4722 20.6766 39.4722 20.9651 38.557L20.6766 39.4722C20.8873 39.5386 21.1143 39.5303 21.3196 39.4487C26.3331 37.4558 28.8998 35.2859 30.2087 33.5105C30.8636 32.6223 31.1949 31.8439 31.3596 31.2575C31.4417 30.9654 31.4816 30.7241 31.5003 30.5442C31.5097 30.4543 31.5137 30.38 31.5152 30.3224C31.5159 30.2937 31.516 30.2691 31.5158 30.2489L31.5155 30.2373V18.558Z" fill="#EDEFF5" stroke="#939DFF" stroke-width="1.91926" stroke-miterlimit="10" stroke-linecap="square" stroke-linejoin="round"/>
<path opacity="0.7" d="M14.8835 29.7006V17.9672L17.8603 17.2339L23.0696 37.7672L20.837 38.5006C17.1161 36.3006 14.8835 33.7339 14.8835 29.7006Z" fill="#D4D5E8"/>
<path d="M54.593 18.558C54.593 18.0922 54.2586 17.6937 53.8 17.6129L44.2091 15.9229C44.0986 15.9034 43.9856 15.9034 43.8751 15.923L34.0729 17.66C33.6147 17.7412 33.2807 18.1395 33.2807 18.6049V30.4353C33.2807 30.5032 33.2879 30.5709 33.3022 30.6373C33.9743 33.7585 36.7479 35.9701 39.091 37.3479C40.2935 38.055 41.4532 38.5835 42.3103 38.9351C42.7399 39.1112 43.0961 39.244 43.3469 39.3334C43.4724 39.3781 43.5717 39.412 43.6409 39.4352C43.6754 39.4467 43.7025 39.4556 43.7215 39.4618L43.744 39.469L43.7507 39.4711L43.7528 39.4718L43.7536 39.4721C43.7539 39.4722 43.7541 39.4722 44.0426 38.557L43.7541 39.4722C43.9648 39.5386 44.1918 39.5303 44.3971 39.4487C49.4106 37.4558 51.9773 35.2859 53.2862 33.5105C53.9411 32.6223 54.2724 31.8439 54.4371 31.2575C54.5192 30.9654 54.5591 30.7241 54.5778 30.5442C54.5872 30.4543 54.5913 30.38 54.5927 30.3224C54.5934 30.2937 54.5935 30.2691 54.5933 30.2489L54.593 30.2373V18.558Z" fill="white" stroke="#939DFF" stroke-width="1.91926" stroke-miterlimit="10" stroke-linecap="square" stroke-linejoin="round"/>
<path d="M34.3595 31.3565C35.8961 36.4262 44.0422 38.6131 44.0422 38.6131V16.9241L34.24 18.6611V30.4181C34.24 30.7351 34.2676 31.0533 34.3595 31.3565Z" fill="#EDEFF5"/>
<path d="M46.6791 12.9832C46.6791 12.5175 46.3446 12.119 45.886 12.0381L32.7376 9.72119C32.6271 9.70172 32.5141 9.70178 32.4036 9.72135L18.9654 12.1026C18.5072 12.1838 18.1732 12.5821 18.1732 13.0475V29.2662C18.1732 29.3341 18.1805 29.4018 18.1947 29.4682C19.0824 33.5907 22.765 36.5555 25.9632 38.4361C27.5932 39.3946 29.167 40.112 30.3313 40.5895C30.9145 40.8286 31.3976 41.0087 31.7369 41.1296C31.9066 41.1901 32.0405 41.2358 32.1332 41.2668C32.1796 41.2823 32.2157 41.2942 32.2408 41.3023L32.2702 41.3118L32.2785 41.3145L32.2811 41.3153L32.282 41.3155C32.2823 41.3157 32.2826 41.3157 32.5711 40.4005L32.2826 41.3157C32.4932 41.3821 32.7203 41.3738 32.9255 41.2922C39.757 38.5766 43.2131 35.6362 44.957 33.2709C45.8293 32.0877 46.2644 31.0596 46.4786 30.2971C46.5854 29.917 46.6364 29.6062 46.6601 29.3787C46.6719 29.265 46.677 29.1723 46.6787 29.1024C46.6796 29.0675 46.6797 29.0382 46.6794 29.0149C46.6793 29.0076 46.6792 29.0008 46.6791 28.9947V12.9832Z" fill="white" stroke="#939DFF" stroke-width="1.91926" stroke-miterlimit="10" stroke-linecap="square" stroke-linejoin="round"/>
<path d="M19.2471 30.3629C21.2218 37.4335 32.5707 40.4803 32.5707 40.4803V10.7461L19.1325 13.1274V29.4224C19.1325 29.7393 19.1619 30.0576 19.2471 30.3629Z" fill="#EDEFF5"/>
<path d="M32.74 20.3242L29.236 29.0002H27.778L24.274 20.3242H25.57C25.71 20.3242 25.824 20.3582 25.912 20.4262C26 20.4942 26.066 20.5822 26.11 20.6902L28.156 25.9822C28.224 26.1542 28.288 26.3442 28.348 26.5522C28.412 26.7562 28.472 26.9702 28.528 27.1942C28.576 26.9702 28.628 26.7562 28.684 26.5522C28.74 26.3442 28.802 26.1542 28.87 25.9822L30.904 20.6902C30.936 20.5982 30.998 20.5142 31.09 20.4382C31.186 20.3622 31.302 20.3242 31.438 20.3242H32.74ZM35.8533 21.6082V24.1762H39.1053V25.4662H35.8533V29.0002H34.2333V20.3242H39.7053V21.6082H35.8533Z" fill="#939DFF"/>
<path d="M54.3257 8.09131C54.3257 8.09131 56.9181 7.9497 57.7947 7.08588C58.6713 6.22206 58.815 3.66741 58.815 3.66741C58.815 3.66741 58.9588 6.22206 59.8354 7.08588C60.712 7.9497 63.3044 8.09131 63.3044 8.09131C63.3044 8.09131 60.712 8.23292 59.8354 9.09674C58.9588 9.96056 58.815 12.5152 58.815 12.5152C58.611 10.7054 58.6713 9.96056 57.7947 9.09674C56.9181 8.23292 55.7541 8.29239 54.3257 8.09131Z" fill="#939DFF"/>
<path d="M2.23267 10.1199C2.23267 10.1199 4.29504 10.0072 4.99241 9.32002C5.68977 8.63283 5.8041 6.60053 5.8041 6.60053C5.8041 6.60053 5.91842 8.63283 6.61579 9.32002C7.31315 10.0072 9.37553 10.1199 9.37553 10.1199C9.37553 10.1199 7.31315 10.2325 6.61579 10.9197C5.91842 11.6069 5.8041 13.6392 5.8041 13.6392C5.64176 12.1995 5.68977 11.6069 4.99241 10.9197C4.29504 10.2325 3.36903 10.2798 2.23267 10.1199Z" fill="#939DFF"/>
<path d="M2.23267 41.7993C2.23267 41.7993 5.24089 41.635 6.25808 40.6326C7.27527 39.6303 7.44202 36.6659 7.44202 36.6659C7.44202 36.6659 7.60878 39.6303 8.62597 40.6326C9.64316 41.635 12.6514 41.7993 12.6514 41.7993C12.6514 41.7993 9.64316 41.9636 8.62597 42.966C7.60878 43.9684 7.44202 46.9327 7.44202 46.9327C7.20523 44.8327 7.27527 43.9684 6.25808 42.966C5.24089 41.9636 3.89019 42.0327 2.23267 41.7993Z" fill="#939DFF"/>
</svg>
