<svg width="80" height="156" viewBox="0 0 80 156" fill="none" xmlns="http://www.w3.org/2000/svg">
<mask id="mask0" style="mask-type:alpha" maskUnits="userSpaceOnUse" x="0" y="0" width="80" height="156">
<rect width="80" height="156" fill="#C4C4C4"/>
</mask>
<g mask="url(#mask0)">
<path d="M26.312 131.044C26.312 131.044 27.8836 131.227 29.0266 132.946C30.4911 135.141 30.9912 137.482 30.0625 139.42C29.1338 141.322 28.9195 141.798 28.7409 142.822C28.6337 143.444 29.2052 145.602 29.3838 146.077C29.6696 147.065 28.9195 147.175 28.9195 147.175C29.2409 147.87 28.8837 148.345 28.7051 148.345C27.8122 148.235 27.2764 145.492 26.7049 144.322C26.7049 144.322 27.5978 147.54 27.7407 149.077C27.8479 150.503 26.4906 150.393 26.0976 148.857C26.0976 148.857 24.9904 148.455 24.526 147.028C24.0617 145.602 23.3473 142.749 23.5973 140.993C23.8473 139.237 24.776 135.141 24.776 135.141L26.312 131.044Z" fill="#FAC2A8"/>
<path d="M25.2046 137.59C25.4189 138.212 25.5975 138.87 25.7761 139.529C25.919 140.187 26.0618 140.845 26.0976 141.54C26.0976 141.723 26.0976 141.869 26.0618 142.052C26.0261 142.199 26.0261 142.345 26.0618 142.528C26.0976 142.82 26.2404 143.113 26.419 143.333C26.6334 143.552 26.9191 143.662 27.1334 143.515C27.2406 143.442 27.3477 143.333 27.3834 143.223C27.4549 143.113 27.4906 142.967 27.4906 142.82C27.5263 142.491 27.4906 142.162 27.4906 141.833C27.4906 141.504 27.4906 141.138 27.562 140.809C27.6692 140.114 27.955 139.455 28.4193 138.943C28.6336 138.687 28.8836 138.468 29.0622 138.175C29.2408 137.919 29.3837 137.626 29.4552 137.297C29.6337 136.675 29.5266 135.981 29.2051 135.395C29.598 135.944 29.7766 136.639 29.6337 137.334C29.5266 138.029 29.0622 138.614 28.6336 139.09C28.2407 139.602 27.9907 140.187 27.8835 140.845C27.7764 141.467 27.8478 142.126 27.8121 142.82C27.7764 143.003 27.7764 143.186 27.6692 143.369C27.562 143.515 27.4549 143.698 27.2763 143.771C27.0977 143.881 26.8834 143.881 26.7048 143.808C26.5262 143.735 26.3476 143.625 26.2404 143.515C25.9904 143.259 25.8475 142.894 25.8118 142.528C25.7761 142.345 25.8118 142.162 25.8475 141.979C25.8832 141.833 25.8833 141.65 25.8833 141.504C25.8833 140.845 25.7761 140.187 25.6689 139.529C25.5261 138.907 25.3475 138.248 25.2046 137.59Z" fill="#DC918B"/>
<path d="M25.4552 142.383C25.4909 142.969 25.5266 143.517 25.598 144.066C25.6695 144.615 25.8123 145.163 25.9909 145.675C26.0624 145.931 26.2053 146.187 26.3124 146.443C26.4196 146.7 26.5624 146.919 26.7053 147.212C26.8125 147.468 26.8839 147.833 26.741 148.089C26.6339 148.382 26.3838 148.565 26.0981 148.675C26.3481 148.528 26.5624 148.309 26.6339 148.053C26.7053 147.797 26.6339 147.541 26.5267 147.285C26.4196 147.065 26.241 146.809 26.0981 146.553C25.9552 146.297 25.8481 146.041 25.7409 145.748C25.5266 145.2 25.3837 144.651 25.3123 144.066C25.2051 143.554 25.2051 142.932 25.4552 142.383Z" fill="#DC918B"/>
<path d="M28.1683 143.08C28.1326 143.409 28.1683 143.738 28.2755 144.031C28.3112 144.177 28.4184 144.287 28.4898 144.433C28.5612 144.579 28.6327 144.762 28.6684 144.909C28.847 145.567 28.9541 146.225 28.9899 146.884C28.8113 146.262 28.6684 145.604 28.4184 145.018C28.3469 144.872 28.2755 144.726 28.2041 144.616C28.1326 144.47 28.0612 144.287 28.0612 144.104C28.0255 143.738 28.0612 143.409 28.1683 143.08Z" fill="#DC918B"/>
<path d="M24.7052 131.044L23.8123 135.067C23.8123 135.067 28.6343 134.555 31.4918 137.811L32.2776 131.885C32.3134 131.885 30.4203 130.203 24.7052 131.044Z" fill="#EF3F54"/>
<path d="M24.7038 131.044C24.7038 131.044 23.2036 126.07 24.6681 122.448C26.1326 118.827 28.24 102.733 29.5973 96.7343C30.3117 93.5887 33.2764 89.4188 35.0623 88.7604C36.4911 88.2118 36.884 103.867 37.1698 105.879C35.4195 111.036 32.6692 118.425 32.6692 119.083C32.6692 124.789 30.026 132.507 30.026 132.507C30.026 132.507 27.4185 131.446 24.7038 131.044Z" fill="#BD1A3B"/>
<path d="M31.4921 117.071L30.3491 142.273C30.3491 142.273 38.3144 146.552 44.6009 146.845C49.1372 169.779 48.0657 171.352 48.4586 173.547C48.6729 174.644 49.8516 192.86 49.7445 193.518C49.6016 194.176 49.4944 195.31 49.673 196.078C49.8159 196.664 49.4587 199.7 49.4587 199.7C49.4587 199.7 51.2804 200.248 53.6021 200.504C55.9238 200.76 58.9242 199.919 59.8172 199.919C59.8172 199.919 59.5672 198.31 59.8172 197.285C60.0315 196.444 59.2814 195.383 59.5672 194.469C59.8172 193.555 60.1744 188.69 60.1744 183.459C60.1744 177.204 59.8172 172.083 59.1743 170.218C59.4243 153.392 59.21 143.59 59.1743 142.712C59.0671 138.798 58.5671 135.872 58.5671 134.811C58.5671 133.75 57.7812 116.888 57.7812 116.888L31.4921 117.071Z" fill="#474E64"/>
<path d="M40.7064 137.408C40.8135 138.469 40.9207 139.566 41.0279 140.663C41.135 141.761 41.2065 142.821 41.2779 143.919V144.138H41.0636H38.9204H38.7418V143.955C38.7061 143.004 38.6704 142.053 38.6347 141.102C38.599 140.151 38.599 139.2 38.5632 138.249L38.6704 138.359C38.1346 138.286 37.6346 138.212 37.0988 138.139H37.063V138.103C37.1345 137.81 37.2416 137.554 37.3131 137.261C37.2416 137.554 37.2059 137.847 37.1345 138.103L37.0988 138.03C37.6346 138.066 38.1703 138.103 38.6704 138.139H38.7776V138.249C38.849 139.2 38.9204 140.151 38.9919 141.066C39.0633 142.017 39.099 142.968 39.1705 143.882L38.9562 143.699H41.0993L40.9207 143.919C40.885 142.821 40.8135 141.761 40.8135 140.663C40.7064 139.566 40.7064 138.505 40.7064 137.408Z" fill="#343948"/>
<path d="M59.174 132.104L59.1382 135.03C59.1382 135.03 49.1012 136.896 47.351 137.006C45.6007 137.079 44.6006 134.006 44.6006 134.006L46.4223 132.287L59.174 132.104Z" fill="#EF3F54"/>
<path d="M30.2048 131.302L29.8477 134.229C29.8477 134.229 36.2056 136.387 37.9201 136.679C39.6347 137.009 41.0634 134.119 41.0634 134.119L39.4918 132.18L30.2048 131.302Z" fill="#EF3F54"/>
<path d="M30.3491 142.236C30.3491 142.236 31.2063 162.756 31.2063 163.671C31.2063 164.585 31.8493 194.469 31.5992 195.127C31.3492 195.786 30.9563 199.041 30.9563 199.041C30.9563 199.041 33.6352 200.138 35.3854 200.248C36.9928 200.358 37.7786 200.468 42.172 199.407C41.8149 196.7 41.8506 193.664 41.8506 192.75C41.8506 191.835 42.7793 181.411 42.7793 179.948C42.7793 178.484 43.5294 169.998 42.6364 166.341C42.3506 165.243 43.4222 146.699 43.4222 146.699C43.4222 146.699 37.0999 145.601 30.3491 142.236Z" fill="#343948"/>
<path d="M29.5989 135.174V138.429C29.5989 138.429 34.2066 141.868 47.3512 141.209C60.4958 140.551 59.4242 139.783 59.4242 139.783L59.1742 134.26L29.5989 135.174Z" fill="#31374C"/>
<path d="M59.8887 90.0386C59.8887 90.0386 57.8884 89.0876 54.0665 87.9902C51.5662 87.2953 49.4588 86.8198 46.6727 86.8198C41.9935 86.7832 36.6356 88.2463 35.1355 88.7218C33.5638 89.2339 31.7779 94.94 31.4207 101.012C31.1349 105.73 30.5634 112.644 30.1348 120.764C29.8848 125.263 28.2774 132.505 29.6347 135.175C46.3155 140.406 59.2101 135.029 59.2101 135.029C61.0317 131.554 59.2815 127.055 60.9603 106.901C61.7461 97.0615 59.8887 90.0386 59.8887 90.0386Z" fill="#BD1A3B"/>
<path d="M35.0994 88.7593C34.6707 88.9422 34.385 89.3445 34.1707 89.7103C33.9206 90.1126 33.742 90.515 33.5634 90.9539C33.2063 91.7952 32.9562 92.6731 32.7062 93.5875C32.2418 95.3798 31.9561 97.1721 31.7418 99.001C31.6346 99.9154 31.5989 100.83 31.5275 101.744L31.3489 104.524C31.2417 106.353 31.0988 108.219 30.956 110.047C30.6702 113.742 30.4202 117.436 30.063 121.094C29.7415 124.788 29.3843 128.446 28.9557 132.14L30.5273 110.011L30.9202 104.488L31.0988 101.708C31.1703 100.793 31.206 99.8423 31.3489 98.9278C31.5632 97.099 31.9204 95.2701 32.4562 93.4778C32.7062 92.5999 33.0277 91.7221 33.4206 90.8808C33.5992 90.4784 33.8492 90.0395 34.0992 89.6737C34.3493 89.2714 34.6707 88.9056 35.0994 88.7593Z" fill="#E0363C"/>
<path d="M51.3157 76.1392L40.4572 76.4684C40.4572 76.4684 40.9929 82.0647 41.0287 89.746C41.0287 91.209 41.8145 93.2574 41.8145 93.2574C41.8145 93.2574 46.5294 92.6356 51.3514 87.1855C50.9943 85.759 51.3157 76.1392 51.3157 76.1392Z" fill="#DC918B"/>
<path d="M40.7428 137.081C39.5283 120.036 42.7788 96.6264 43.0288 94.9072L41.6715 93.3344L41.9929 93.0417L43.4931 94.7609V94.8706C43.4574 95.1267 39.957 119.487 41.2071 137.045L40.7428 137.081Z" fill="#E0363C"/>
<path d="M20.5611 58.84C20.5611 58.84 17.7036 49.2566 13.3459 53.3533C8.98817 57.45 15.2747 69.9596 22.2756 66.7773C22.2756 66.8139 23.9187 65.3874 20.5611 58.84Z" fill="#F7AB8D"/>
<path d="M10.8099 23.4694C5.52348 25.1154 8.20241 35.5034 9.27398 38.2467C13.2388 48.4884 14.0246 57.5962 17.4536 60.8516C17.4536 60.8516 19.4182 20.7992 10.8099 23.4694Z" fill="#2B2E3A"/>
<path d="M66.2087 56.4629C66.173 56.9018 65.0657 68.3506 58.2791 67.1435L58.8149 60.0109L66.2087 56.4629Z" fill="#2B2E3A"/>
<path d="M59.2806 19.1549C59.2806 19.1549 19.2753 14.1804 13.3103 26.251C8.63108 35.688 13.9889 44.7958 16.5607 56.6103C18.4895 65.4255 18.811 71.6071 19.6683 73.0702C23.383 79.6542 32.8486 85.5066 37.2777 85.3603C47.0647 85.0311 55.4587 76.5817 58.5305 70.4001C60.245 66.8886 60.7094 56.208 59.8878 43.6619C59.2092 32.9081 60.9594 23.1785 59.2806 19.1549Z" fill="#FAC2A8"/>
<path d="M41.5417 45.6084C42.2161 45.4568 42.6464 44.7901 42.5026 44.1192C42.3589 43.4483 41.6956 43.0273 41.0212 43.1788C40.3468 43.3303 39.9166 43.997 40.0603 44.6679C40.204 45.3388 40.8673 45.7599 41.5417 45.6084Z" fill="#31374C"/>
<path d="M41.683 44.1318C41.8747 44.0842 41.9924 43.8865 41.9459 43.6904C41.8995 43.4942 41.7064 43.3739 41.5147 43.4215C41.323 43.4692 41.2053 43.6668 41.2518 43.863C41.2983 44.0591 41.4913 44.1795 41.683 44.1318Z" fill="white"/>
<path opacity="0.2" d="M18.0605 53.6452C18.0605 54.523 19.4893 55.218 21.2395 55.1814C22.9897 55.1448 24.3828 54.4133 24.3828 53.5354C24.3828 52.6576 22.954 51.9626 21.2038 51.9992C19.4536 52.0358 18.0605 52.7673 18.0605 53.6452Z" fill="#EF3F54"/>
<path opacity="0.2" d="M40.0634 50.5727C40.4563 51.4871 42.278 51.5603 44.0997 50.6824C45.9213 49.8412 47.0643 48.4146 46.6714 47.5002C46.2785 46.5858 44.4569 46.5126 42.6352 47.3905C40.7778 48.2318 39.6348 49.6583 40.0634 50.5727Z" fill="#EF3F54"/>
<path d="M21.7911 49.5561C22.4655 49.4045 22.8957 48.7378 22.752 48.067C22.6083 47.3961 21.945 46.975 21.2706 47.1265C20.5962 47.2781 20.166 47.9447 20.3097 48.6156C20.4534 49.2865 21.1167 49.7076 21.7911 49.5561Z" fill="#31374C"/>
<path d="M21.9325 48.0776C22.1242 48.03 22.2419 47.8323 22.1954 47.6362C22.1489 47.44 21.9558 47.3197 21.7641 47.3673C21.5725 47.415 21.4547 47.6126 21.5012 47.8088C21.5477 48.0049 21.7408 48.1253 21.9325 48.0776Z" fill="white"/>
<path d="M14.5249 40.8071C15.6322 39.1611 17.0252 37.8443 20.0256 37.4054C21.5973 37.3688 23.2404 37.1859 21.6687 35.7228C18.9898 33.5281 13.0961 37.2225 12.8818 41.6118C12.5961 43.5139 13.9177 42.0142 14.5249 40.8071Z" fill="#2B2E3A"/>
<path d="M44.3857 35.1007C42.8855 33.7839 41.2067 32.9061 38.2063 33.2719C36.6704 33.6376 35.063 33.9302 36.206 32.1014C38.242 29.2484 44.85 31.2967 46.1716 35.4299C46.9574 37.2222 45.3144 36.1249 44.3857 35.1007Z" fill="#2B2E3A"/>
<path opacity="0.6" d="M32.2419 36.749C32.2419 36.749 29.9559 40.1507 24.7052 40.7726C24.7052 40.7726 29.9916 48.4904 27.3841 59.2077C27.3841 59.2077 33.1349 61.8047 37.314 56.5375C37.2783 56.5375 31.9919 47.4663 32.2419 36.749Z" fill="url(#paint0_linear)"/>
<path d="M58.1378 53.4272C54.423 47.4285 55.9232 40.9177 51.9227 34.5898C48.9223 29.9079 48.2793 21.422 50.0296 18.4958C50.0296 18.4958 60.4238 14.9477 60.9953 15.2769C64.3886 17.2521 68.9964 27.6035 67.1747 48.6722L58.1378 53.4272Z" fill="#2B2E3A"/>
<path d="M58.8513 50.6834C58.8513 50.6834 59.8515 44.6481 65.0307 46.3672C70.21 48.1229 70.7815 63.449 59.0656 60.9251C59.0656 60.9251 57.9941 56.9748 58.8513 50.6834Z" fill="#FAC2A8"/>
<path d="M65.5673 50.246C64.9601 49.9168 64.2457 49.6974 63.5671 49.7339C62.8884 49.7339 62.2455 50.0997 61.8526 50.6484C61.4597 51.197 61.2096 51.8189 61.031 52.4773C60.8524 53.1357 60.781 53.8306 60.7096 54.489L60.4595 54.2696C61.1382 54.1598 61.8168 54.233 62.4241 54.5988C63.0313 54.9279 63.3885 55.5863 63.4599 56.2447C63.5313 56.5739 63.4599 56.9031 63.3885 57.2323C63.2813 57.5615 63.067 57.8176 62.817 58.037C62.3169 58.4394 61.7097 58.6954 61.0667 58.8052C61.674 58.6223 62.2455 58.3297 62.6741 57.8907C62.8884 57.6713 63.067 57.4152 63.1384 57.1592C63.2099 56.8666 63.2456 56.6105 63.1742 56.3179C63.067 55.7327 62.7455 55.2206 62.2455 54.9645C61.7454 54.6719 61.1025 54.6353 60.5667 54.7451L60.3167 54.7816L60.3524 54.5256C60.4238 53.8306 60.531 53.1356 60.7096 52.4407C60.8882 51.7457 61.1739 51.0507 61.6382 50.5021C62.1026 49.9168 62.8527 49.551 63.6028 49.5876C64.3172 49.5145 64.9958 49.8071 65.5673 50.246Z" fill="#DC918B"/>
<path d="M27.3472 59.1696C27.3472 59.1696 33.2051 66.0461 37.277 56.4995C37.277 56.5361 33.348 59.0965 27.3472 59.1696Z" fill="#DC918B"/>
<path d="M6.27398 18.6411C9.66729 14.1421 15.9538 5.21713 24.9907 4.01007C29.4913 3.49798 29.9557 4.52216 29.9557 4.52216C29.4913 3.86376 27.7411 1.59595 27.7411 1.59595C35.2778 4.04665 59.9954 -4.00043 60.9598 15.3126C62.46 16.5562 63.3887 17.5804 63.4958 18.0925C64.0316 20.5432 50.9227 34.0769 50.9942 27.8221C51.2799 22.5183 51.6014 21.8234 49.4583 20.726C45.5649 18.7143 39.4927 19.4092 26.3123 25.5909C20.133 28.4805 8.63144 32.9064 -1.0127 24.1278C-1.0127 24.0912 2.88068 23.1402 6.27398 18.6411Z" fill="#2B2E3A"/>
<path d="M25.5259 66.3043C31.9196 70.2181 29.205 76.1803 37.599 75.0829C45.5643 73.1809 47.1002 59.3911 47.1002 59.3911C35.9559 69.8157 25.5259 66.3043 25.5259 66.3043Z" fill="#31374C"/>
<path d="M44.0296 69.4121C37.8145 70.3997 34.9212 72.887 33.5996 74.9353C34.564 75.2645 35.8499 75.3377 37.6001 75.1182C40.5291 74.3867 42.6008 72.0823 44.0296 69.4121Z" fill="#F97A7A"/>
<path d="M25.5259 66.3043C26.8833 67.109 27.812 68.0234 28.5263 68.9379C28.8478 69.3402 39.885 68.9013 46.1715 63.8536C46.8502 61.3297 47.0645 59.3911 47.0645 59.3911C35.9559 69.8157 25.5259 66.3043 25.5259 66.3043Z" fill="white"/>
<path d="M26.3476 66.8533C26.6333 67.0362 26.8834 67.2557 27.1334 67.4751C27.3834 67.6946 27.6335 67.9141 27.8835 68.1701C28.1335 68.4261 28.3478 68.6822 28.5621 68.9382C29.4194 69.999 30.0623 71.206 30.7767 72.3399C31.1339 72.9252 31.5268 73.4738 31.9912 73.9128C32.2412 74.1322 32.4912 74.3151 32.777 74.498C33.0627 74.6443 33.3485 74.7906 33.67 74.8638C33.8128 74.9004 33.9914 74.937 34.1343 74.9735C34.2772 75.0101 34.4558 75.0467 34.5987 75.0467C34.9201 75.0833 35.2416 75.1198 35.5631 75.1198C35.8845 75.1198 36.206 75.1198 36.5632 75.0833C36.8847 75.0833 37.2061 75.0101 37.5276 74.9735C39.0278 74.6078 40.4209 73.7299 41.5281 72.596C42.6354 71.4621 43.4927 70.1087 44.2071 68.6456C44.9214 67.2191 45.4572 65.6828 45.8859 64.1466C46.1002 63.3784 46.3145 62.5737 46.4574 61.8056C46.636 61.0009 46.7788 60.2328 46.886 59.4281L47.1717 59.5744L46.0645 60.562C45.6715 60.8912 45.3144 61.2204 44.9214 61.513C44.5285 61.8056 44.1356 62.1348 43.707 62.3908C43.3141 62.6835 42.8855 62.9761 42.4568 63.2321C42.0282 63.4882 41.5996 63.7442 41.171 64.0003C40.7423 64.2563 40.278 64.4758 39.8493 64.6952C39.385 64.9147 38.9564 65.0976 38.492 65.2805C38.0277 65.4634 37.5633 65.6462 37.099 65.7926C36.6346 65.9389 36.1703 66.0852 35.6702 66.2315C35.2059 66.3778 34.7058 66.4875 34.2415 66.5607C33.7414 66.6704 33.2771 66.7436 32.777 66.8167C32.2769 66.8899 31.8126 66.9265 31.3125 66.963C30.3124 66.9996 29.348 66.9996 28.3478 66.9265C27.3834 66.8167 26.3833 66.6704 25.4546 66.3778C25.7761 66.4875 26.0975 66.6704 26.3476 66.8533ZM28.4193 66.7801C29.3837 66.8533 30.3838 66.8533 31.3482 66.7436C31.8483 66.707 32.3126 66.6338 32.8127 66.5607C33.3128 66.4875 33.7771 66.4144 34.2415 66.3046C34.7058 66.1949 35.2059 66.0852 35.6702 65.9389C36.1346 65.7926 36.5989 65.6462 37.0633 65.4999C37.5276 65.317 37.992 65.1707 38.4206 64.9513C38.8849 64.7684 39.3136 64.5489 39.7422 64.3295C40.1708 64.11 40.5994 63.8905 41.0281 63.6345C41.4567 63.3784 41.8853 63.159 42.2782 62.8663C42.7069 62.6103 43.0998 62.3177 43.4927 62.0251C43.8856 61.769 44.2785 61.4398 44.6714 61.1472C45.0643 60.8546 45.4215 60.5254 45.8144 60.1962L46.9217 59.2086L47.2789 58.8794L47.2075 59.3549C47.1003 60.1596 46.9574 60.9643 46.8146 61.769C46.636 62.5737 46.4574 63.3784 46.2431 64.1466C45.8144 65.7194 45.2429 67.2557 44.5285 68.7188C43.8142 70.1819 42.9212 71.5718 41.7782 72.7423C40.6352 73.9128 39.2064 74.8272 37.5991 75.1564C37.2776 75.193 36.9204 75.2296 36.5989 75.2296C36.2774 75.2661 35.9203 75.2661 35.5988 75.2661C35.2773 75.2661 34.9201 75.2296 34.5987 75.193C34.4201 75.193 34.2772 75.1564 34.0986 75.1198C33.92 75.0833 33.7771 75.0467 33.5985 74.9735C33.2771 74.8638 32.9556 74.7175 32.6698 74.5712C32.3841 74.3883 32.0983 74.2054 31.8483 73.9494C31.3482 73.4738 30.9553 72.9252 30.5981 72.3399C30.2409 71.7547 29.9195 71.1695 29.598 70.5842C29.2765 69.999 28.8836 69.4503 28.4907 68.9016C28.2764 68.6456 28.0621 68.3896 27.8478 68.1335C27.6335 67.8775 27.3834 67.658 27.1334 67.4385C26.8834 67.2191 26.6333 66.9996 26.3476 66.8167C26.0975 66.5973 25.8118 66.4144 25.526 66.2315C26.4547 66.5607 27.4191 66.707 28.4193 66.7801Z" fill="#DC918B"/>
<path d="M44.7423 59.3905C44.7423 59.3905 45.0638 59.2442 45.4924 59.171C45.5996 59.1344 45.7424 59.1344 45.8496 59.0979C45.9925 59.0613 46.1354 59.0979 46.2425 59.0613C46.3854 59.0613 46.5283 59.0613 46.6711 59.0979C46.7426 59.0979 46.814 59.1344 46.8855 59.1344L47.0998 59.2076C47.2426 59.2442 47.3498 59.3173 47.4927 59.3905C47.5998 59.4637 47.7427 59.5734 47.8499 59.6465C47.957 59.7563 48.0642 59.8294 48.1713 59.9392C48.2428 60.0489 48.3499 60.1221 48.4214 60.2318C48.4928 60.305 48.5643 60.4147 48.6357 60.4879C48.7071 60.561 48.7428 60.6342 48.7786 60.7073C48.85 60.8171 48.9214 60.8902 48.9214 60.8902C48.9214 60.8902 48.8857 60.8171 48.85 60.6708C48.7786 60.5244 48.7428 60.3415 48.6 60.1221C48.5285 60.0123 48.4571 59.9026 48.3857 59.7563C48.2785 59.6465 48.2071 59.5368 48.0999 59.3905C47.9927 59.2808 47.8499 59.171 47.707 59.0613C47.5641 58.9881 47.4212 58.8784 47.2426 58.8418L46.9926 58.7687C46.9212 58.7321 46.814 58.7321 46.7426 58.7321C46.564 58.6955 46.4211 58.7321 46.2425 58.7321C46.0996 58.7687 45.921 58.7687 45.7782 58.8052C45.6353 58.8418 45.5281 58.8784 45.3852 58.9516C44.9923 59.1344 44.7423 59.3905 44.7423 59.3905Z" fill="#DC918B"/>
<path d="M38.3487 15.2743C38.3487 15.2743 40.1704 19.2247 35.1698 23.4677C29.5262 28.2228 22.3109 28.8811 22.3109 28.8811C22.3109 28.8811 25.5971 26.3939 24.9898 23.6871C24.0969 19.7002 31.2407 13.1162 31.2407 13.1162L38.3487 15.2743Z" fill="#2B2E3A"/>
<path d="M21.9542 4.74194C21.9542 4.74194 19.561 5.43691 10.5241 11.1064C6.73788 13.4839 3.91608 9.53358 3.91608 9.53358C3.91608 9.53358 1.48718 19.2631 10.6312 18.239C19.7753 17.1782 21.9542 4.74194 21.9542 4.74194Z" fill="#2B2E3A"/>
<path d="M51.1727 83.128C51.1727 83.128 46.8507 85.5055 44.3504 85.6884C41.85 85.8713 42.3501 91.9432 42.1715 93.5892C42.1715 93.5892 47.9937 92.7479 50.2083 91.0287C52.4229 89.3096 53.2087 87.9562 53.2087 87.9562C53.2087 87.9562 53.4944 84.4082 53.1372 82.9451C53.0301 82.5793 51.137 81.5552 51.137 81.5552L51.1727 83.128Z" fill="#31374C"/>
<path d="M40.1358 85.0281C40.1358 85.0281 39.5643 85.2841 39.1714 85.8328C38.7785 86.3815 39.6715 90.0759 39.5286 90.9903C39.3857 91.9048 41.4575 93.4044 41.4575 93.4044L41.9575 92.9655L41.6718 86.8204C41.6718 86.4181 41.386 86.0523 40.9931 85.9426L40.9574 84.8452L40.1358 85.0281Z" fill="#31374C"/>
<path d="M42.4924 93.4439L42.2781 93.3707V92.8587L41.7423 92.6758L41.4923 93.0781L41.2423 93.0416L40.385 95.1265C40.2778 95.3825 40.4207 95.6751 40.6707 95.7483L41.4209 96.0043C41.6709 96.0775 41.9566 95.9312 42.0281 95.6385L42.4924 93.4439Z" fill="#E1E4F4"/>
<path d="M49.2449 101.929C49.1377 101.929 49.0663 101.966 48.9949 102.075L47.959 103.356L47.6733 102.039C47.6375 101.893 47.5661 101.856 47.4947 101.856C47.3875 101.856 47.3161 101.893 47.2446 102.002L46.2802 103.685L46.7446 103.721L47.3875 102.551L47.6733 103.795L48.0662 103.831L48.9949 102.697L48.9234 103.904L49.3163 103.941L49.4235 102.258C49.4235 102.039 49.3163 101.966 49.2449 101.929Z" fill="white"/>
<path d="M45.7794 102.039L45.2793 103.612H45.7079L46.208 102.039H45.7794Z" fill="white"/>
<path d="M44.9941 102.441C45.0298 102.221 44.9226 101.965 44.494 101.965L43.6725 101.892L43.2081 103.465L43.6368 103.501L43.8153 102.916H44.0297L44.3869 103.538L44.8512 103.574L44.4583 102.916C44.8155 102.843 44.9584 102.623 44.9941 102.441ZM44.1725 102.66L43.8511 102.623L43.9939 102.148L44.3154 102.184C44.494 102.184 44.5654 102.294 44.5297 102.441C44.5297 102.587 44.3869 102.66 44.1725 102.66Z" fill="white"/>
<path d="M51.1022 103.977L51.5308 104.014L51.245 102.514C51.2093 102.331 51.1022 102.294 50.995 102.294C50.9236 102.294 50.8521 102.331 50.7807 102.404L49.6377 103.867L50.0663 103.904L50.2806 103.575L51.0307 103.611L51.1022 103.977ZM50.4592 103.355L50.8879 102.807L50.995 103.392L50.4592 103.355Z" fill="white"/>
<path d="M52.8514 103.795C52.4942 103.758 52.3156 103.539 52.3514 103.283C52.4228 102.953 52.7443 102.734 53.1729 102.771C53.3158 102.771 53.4586 102.807 53.6015 102.844L53.7087 102.514C53.6015 102.478 53.3872 102.441 53.2443 102.441C52.4942 102.405 52.0299 102.697 51.9227 103.209C51.8513 103.685 52.137 104.014 52.8157 104.051C52.9586 104.051 53.0657 104.051 53.2443 104.051L53.3515 103.722C53.1729 103.795 53.03 103.831 52.8514 103.795Z" fill="white"/>
<path d="M34.9196 118.057C34.9196 118.057 34.2409 117.435 34.1695 116.923C34.098 116.411 34.5981 115.606 34.5981 115.606C34.5981 115.606 34.1695 114.984 34.3838 114.216C34.5981 113.411 35.0982 113.082 35.0982 113.082C35.0982 113.082 34.4552 112.46 34.6695 111.729C34.8838 110.961 35.7054 110.705 36.7769 110.851C36.7769 110.851 42.7777 110.961 43.5636 111.656C44.6708 112.607 46.0996 115.387 46.0996 115.387C47.0997 116.338 46.7783 120.617 46.7783 120.617L44.0636 120.251C43.2421 121.129 37.5985 121.056 37.0627 120.8C35.884 120.288 35.5982 120.215 34.8481 119.556C34.3481 119.081 34.9196 118.057 34.9196 118.057Z" fill="#FAC2A8"/>
<path d="M40.9204 106.28C40.849 107.267 41.2419 107.779 42.3491 110.01C42.8135 110.961 44.0994 110.486 45.4567 114.107C45.8139 115.095 39.2416 112.315 39.6345 111.912C40.4203 111.035 38.5987 109.389 38.6344 107.377C38.6344 105.621 41.0633 104.048 40.9204 106.28Z" fill="#FAC2A8"/>
<path d="M36.0979 110.888C36.0979 110.888 39.2769 110.632 39.8127 111.803C40.3485 112.937 39.8484 113.522 39.2055 113.595C39.2055 113.595 39.7055 113.997 39.5984 114.839C39.4912 115.68 38.7768 115.79 38.0267 115.899C37.2766 116.009 35.2764 115.68 35.2764 115.68L36.0979 110.888Z" fill="#FAC2A8"/>
<path d="M45.6011 114.182L50.1731 114.986L49.423 121.278L44.9938 120.583L45.6011 114.182Z" fill="#EF3F54"/>
<path d="M48.9216 114.766C50.136 111.803 54.7081 113.705 57.0298 113.303C56.1368 109.718 55.7439 105.987 55.7439 105.987L54.0651 102.366C54.2437 94.0265 56.5655 90.515 59.7087 89.8201C59.7087 89.8201 63.2449 91.2466 64.3165 96.404C64.6379 97.9769 67.9598 119.814 64.4236 122.959C61.2446 125.776 51.4576 125.154 48.5287 122.191L48.9216 114.766Z" fill="#BD1A3B"/>
<path d="M48.9211 114.766C49.064 114.4 49.2426 114.071 49.5284 113.815C49.8141 113.559 50.1356 113.376 50.4928 113.23C51.2072 112.974 51.9573 112.937 52.6716 112.937C53.4217 112.974 54.1361 113.047 54.8505 113.083C55.5649 113.157 56.315 113.193 56.9936 113.083L56.8508 113.303C56.5293 112.096 56.2793 110.889 56.0649 109.645C55.8506 108.438 55.672 107.194 55.5292 105.951L55.5649 106.06C54.9934 104.853 54.4219 103.61 53.8861 102.403L53.8504 102.366V102.33C53.8861 101.086 53.9575 99.8423 54.1361 98.5987C54.279 97.355 54.529 96.148 54.9219 94.9409C55.0291 94.6483 55.1363 94.3557 55.2434 94.0631C55.3506 93.7704 55.4934 93.4778 55.6363 93.2218C55.7792 92.9292 55.9221 92.6731 56.1007 92.4171C56.2793 92.161 56.4579 91.905 56.6722 91.6855C57.0651 91.21 57.5294 90.8077 58.0652 90.4785C58.601 90.1493 59.1725 89.9298 59.7797 89.8201C59.2082 89.9664 58.6367 90.2224 58.1367 90.5516C57.6366 90.9174 57.208 91.3197 56.8508 91.7953C56.1007 92.7463 55.6363 93.9168 55.2791 95.0507C54.9219 96.2211 54.7433 97.4282 54.6005 98.6718C54.4576 99.8789 54.3862 101.123 54.3504 102.366L54.3147 102.256C54.8862 103.463 55.422 104.634 55.9578 105.841L55.9935 105.914V105.951C56.1364 107.158 56.315 108.401 56.4936 109.608C56.7079 110.816 56.9579 112.023 57.208 113.23L57.2437 113.413L57.0651 113.449C56.315 113.559 55.5649 113.486 54.8505 113.376C54.1361 113.303 53.386 113.193 52.6716 113.157C51.9573 113.12 51.2072 113.12 50.5285 113.303C49.8141 113.595 49.2069 114.071 48.9211 114.766Z" fill="#E0363C"/>
<path d="M64.4595 122.962C63.9595 123.437 63.3165 123.803 62.6736 124.059C62.0306 124.352 61.3163 124.535 60.6376 124.644C59.2446 124.9 57.8158 125.01 56.4228 124.937C55.0297 124.864 53.601 124.681 52.2436 124.279C51.565 124.096 50.8863 123.84 50.2434 123.51C49.6004 123.181 48.9932 122.816 48.4574 122.267L48.386 122.194V122.121C48.4217 121.499 48.4574 120.877 48.4931 120.255L48.636 118.39C48.6717 117.768 48.7432 117.146 48.7789 116.524C48.8146 115.902 48.8861 115.281 48.9218 114.659C48.9218 115.281 48.9218 115.902 48.8861 116.524C48.8861 117.146 48.8861 117.768 48.8503 118.39L48.8146 120.255C48.7789 120.877 48.7789 121.499 48.7432 122.121L48.6717 121.974C49.6719 122.925 50.9935 123.437 52.3151 123.803C53.6367 124.169 55.0297 124.388 56.4228 124.461C57.8158 124.535 59.2088 124.535 60.5662 124.315C61.9592 124.205 63.3165 123.84 64.4595 122.962Z" fill="#E0363C"/>
</g>
<defs>
<linearGradient id="paint0_linear" x1="29.5457" y1="37.1081" x2="32.5077" y2="59.6765" gradientUnits="userSpaceOnUse">
<stop stop-color="#FAC2A8"/>
<stop offset="0.2651" stop-color="#F7BCA5"/>
<stop offset="0.6038" stop-color="#EDAD9B"/>
<stop offset="0.981" stop-color="#DD938C"/>
<stop offset="1" stop-color="#DC918B"/>
</linearGradient>
</defs>
</svg>
