<svg width="144" height="196" viewBox="0 0 144 196" fill="none" xmlns="http://www.w3.org/2000/svg">
<path d="M105.046 148.328L113.758 163.818C115.444 161.977 123.329 158.666 126.896 152.287C130.14 153.183 132.837 158.997 131.899 162.021C125.215 170.304 110.87 185.01 106.673 181.187C100.068 175.169 94.5416 161.032 94.5416 161.032L105.046 148.328Z" fill="#FAC2A8"/>
<path d="M128.103 156.017C128.103 156.017 123.314 155.574 124.028 146.804C124.179 144.963 125.083 141.798 125.191 140.775C125.298 139.753 125.152 136.13 124.331 135.015C123.505 133.9 122.972 133.091 123.637 132.273C124.301 131.455 127.736 130.924 129.275 134.25C130.814 137.576 130.013 140.371 130.013 140.371C130.013 140.371 132.749 136.972 134.147 136.972C134.752 136.972 141.05 136.578 142.374 138.151C142.878 138.745 144.168 151.853 143.982 152.491C143.796 153.134 137.738 163.365 131.787 162.342C129.065 161.875 128.103 156.333 128.103 156.017Z" fill="#FAC2A8"/>
<path d="M140.537 149.741C140.18 149.58 139.848 149.482 139.496 149.448L138.441 149.385C137.732 149.351 137.024 149.317 136.286 149.366C136.1 149.38 135.915 149.4 135.709 149.453C135.494 149.502 135.26 149.648 135.128 149.77C134.82 150.028 134.586 150.305 134.356 150.588C133.902 151.167 133.511 151.718 133.144 152.394C132.978 152.745 132.851 153.105 132.802 153.51C132.748 153.909 132.807 154.352 133.012 154.727C133.213 155.107 133.53 155.389 133.862 155.594C134.2 155.803 134.556 155.939 134.918 156.032C135.279 156.129 135.641 156.193 136.007 156.227C136.188 156.246 136.374 156.256 136.559 156.261C136.755 156.261 136.906 156.271 137.16 156.227C137.6 156.09 137.884 155.881 138.182 155.657C138.328 155.545 138.465 155.428 138.602 155.306C138.743 155.175 138.851 155.082 139.012 154.897L138.607 154.6C138.182 155 137.542 155.511 137.033 155.667C136.936 155.681 136.735 155.681 136.579 155.672C136.413 155.662 136.242 155.647 136.076 155.628C135.744 155.584 135.411 155.516 135.094 155.423C134.468 155.233 133.858 154.922 133.603 154.425C133.335 153.938 133.472 153.281 133.755 152.711C133.882 152.448 134.107 152.136 134.288 151.859C134.483 151.576 134.678 151.289 134.884 151.021C135.089 150.753 135.309 150.49 135.543 150.291C135.67 150.184 135.744 150.135 135.871 150.096C136.007 150.057 136.169 150.038 136.335 150.018C137.004 149.96 137.708 149.979 138.406 149.999C139.11 149.979 139.828 150.174 140.537 149.741Z" fill="#DC918B"/>
<path d="M140.239 145.66C139.125 145.392 138.045 145.524 136.95 145.582C136.403 145.621 135.856 145.66 135.299 145.728C135.015 145.772 134.752 145.791 134.424 145.908C134.068 146.035 133.848 146.283 133.643 146.512C133.261 146.994 133.037 147.53 132.856 148.065C132.675 148.606 132.553 149.156 132.485 149.721C132.411 150.281 132.411 150.856 132.494 151.43C132.587 152.029 132.787 152.536 133.051 153.057L133.53 152.823C133.428 152.589 133.344 152.341 133.271 152.093C133.188 151.839 133.144 151.596 133.11 151.347C133.056 150.841 133.09 150.32 133.154 149.804C133.301 148.781 133.613 147.72 134.19 146.941C134.336 146.765 134.502 146.59 134.669 146.536C134.854 146.458 135.138 146.42 135.392 146.376C135.919 146.298 136.457 146.244 136.999 146.196C138.079 146.088 139.173 146.093 140.239 145.66Z" fill="#DC918B"/>
<path d="M132.944 149.477C132.451 149.132 132.06 148.659 131.845 148.114C131.62 147.569 131.591 146.955 131.645 146.351C131.796 145.139 132.285 143.902 133.042 142.952C133.428 142.48 133.887 142.086 134.439 141.939C135.021 141.779 135.675 141.735 136.316 141.706C136.96 141.672 137.615 141.686 138.275 141.657C138.602 141.642 138.934 141.613 139.267 141.564C139.594 141.501 139.946 141.452 140.234 141.258C139.902 141.277 139.584 141.219 139.257 141.19C138.934 141.16 138.607 141.131 138.28 141.112C137.625 141.078 136.965 141.082 136.301 141.092C135.636 141.112 134.967 141.136 134.273 141.306C133.535 141.487 132.944 141.983 132.5 142.509C132.04 143.045 131.718 143.658 131.459 144.291C131.205 144.929 131.024 145.587 130.946 146.283C130.873 146.974 130.941 147.71 131.234 148.372C131.518 149.039 132.026 149.599 132.632 149.969L132.944 149.477Z" fill="#DC918B"/>
<path d="M131.147 139.042C130.668 139.354 130.248 139.719 129.954 140.264C129.671 140.814 129.651 141.472 129.778 142.037C129.901 142.597 130.081 143.166 130.497 143.653C130.707 143.892 130.99 144.082 131.308 144.17C131.611 144.267 131.958 144.252 132.202 144.238V143.702C131.899 143.712 131.689 143.717 131.469 143.649C131.254 143.585 131.068 143.463 130.917 143.288C130.614 142.938 130.438 142.436 130.35 141.934C130.257 141.433 130.277 140.951 130.463 140.503C130.624 140.04 130.985 139.612 131.147 139.042Z" fill="#DC918B"/>
<path d="M136.276 154.493C136.687 154.634 137.097 154.77 137.517 154.848C137.937 154.936 138.367 154.985 138.797 155.009C139.232 155.019 139.672 155.004 140.102 154.912C140.527 154.824 140.991 154.668 141.289 154.332C140.869 154.454 140.468 154.459 140.053 154.459C139.643 154.454 139.232 154.444 138.817 154.425C138.402 154.415 137.981 154.395 137.561 154.395C137.146 154.405 136.716 154.39 136.276 154.493Z" fill="#DC918B"/>
<path d="M40.0583 148.46L31.9966 164.217C30.3109 162.377 20.671 158.666 17.1043 152.287C13.86 153.183 11.163 158.997 12.1011 162.021C18.785 170.304 29.3826 184.397 35.6415 180.676C43.327 176.104 49.4589 161.033 49.4589 161.033L40.0583 148.46Z" fill="#FAC2A8"/>
<path d="M15.897 156.017C15.897 156.017 20.6852 155.574 19.9719 146.804C19.8204 144.963 18.9165 141.798 18.809 140.775C18.7015 139.753 18.8481 136.13 19.6689 135.015C20.4947 133.9 21.0272 133.091 20.3627 132.273C19.6983 131.455 16.2635 130.924 14.7244 134.25C13.1853 137.576 13.9866 140.371 13.9866 140.371C13.9866 140.371 11.2505 136.972 9.85313 136.972C9.24727 136.972 2.94932 136.578 1.62524 138.151C1.12199 138.745 -0.167902 151.853 0.0177631 152.491C0.203428 153.134 6.26197 163.365 12.213 162.342C14.9394 161.875 15.9019 156.333 15.897 156.017Z" fill="#FAC2A8"/>
<path d="M3.46721 149.74C4.17567 150.174 4.8939 149.979 5.59259 149.989C6.29128 149.969 6.99484 149.95 7.66421 150.008C7.83034 150.023 7.99158 150.047 8.12838 150.086C8.2603 150.12 8.3287 150.174 8.45573 150.281C8.68537 150.48 8.90524 150.743 9.11533 151.011C9.32543 151.279 9.51598 151.566 9.71142 151.849C9.89708 152.126 10.1218 152.438 10.244 152.701C10.5274 153.266 10.6642 153.928 10.3954 154.415C10.1414 154.917 9.52575 155.228 8.90524 155.413C8.58766 155.511 8.2603 155.579 7.92317 155.618C7.75705 155.642 7.58604 155.657 7.41992 155.662C7.26357 155.671 7.06325 155.671 6.96553 155.657C6.4574 155.501 5.81734 154.99 5.39226 154.59L4.98674 154.887C5.14797 155.077 5.25546 155.165 5.39715 155.296C5.53396 155.418 5.67076 155.535 5.81734 155.647C6.11538 155.871 6.39876 156.08 6.83849 156.217C7.08767 156.261 7.24403 156.251 7.43947 156.251C7.62513 156.246 7.80591 156.236 7.99158 156.217C8.35802 156.183 8.71957 156.119 9.08113 156.022C9.44269 155.925 9.79936 155.788 10.1365 155.584C10.4687 155.379 10.7912 155.097 10.9867 154.717C11.1919 154.342 11.2505 153.899 11.1967 153.5C11.1479 153.095 11.0257 152.735 10.8547 152.384C10.4883 151.708 10.0974 151.157 9.64302 150.578C9.41338 150.295 9.17885 150.018 8.87104 149.76C8.73423 149.638 8.49971 149.492 8.28961 149.443C8.0844 149.395 7.89874 149.37 7.71308 149.356C6.9753 149.307 6.26684 149.341 5.55838 149.375L4.50302 149.438C4.15612 149.482 3.82388 149.575 3.46721 149.74Z" fill="#DC918B"/>
<path d="M3.76523 145.66C4.83036 146.093 5.9248 146.084 7.00459 146.196C7.54693 146.244 8.08438 146.298 8.61206 146.376C8.86613 146.42 9.14952 146.458 9.33519 146.536C9.50131 146.59 9.66742 146.765 9.814 146.941C10.3954 147.72 10.7081 148.781 10.8498 149.804C10.9133 150.32 10.9475 150.841 10.8938 151.347C10.8596 151.596 10.8156 151.834 10.7326 152.093C10.6593 152.341 10.5762 152.594 10.4736 152.823L10.9524 153.057C11.2114 152.536 11.4117 152.029 11.5094 151.43C11.5925 150.856 11.5925 150.281 11.5192 149.721C11.4459 149.161 11.3238 148.606 11.1479 148.065C10.9622 147.53 10.7375 146.994 10.3612 146.512C10.156 146.283 9.93616 146.035 9.57948 145.908C9.25701 145.791 8.98828 145.772 8.7049 145.728C8.1479 145.66 7.60068 145.621 7.05345 145.582C5.959 145.524 4.87922 145.392 3.76523 145.66Z" fill="#DC918B"/>
<path d="M11.3779 149.964C11.9838 149.594 12.4919 149.034 12.7753 148.367C13.0684 147.705 13.1369 146.965 13.0636 146.278C12.9854 145.582 12.8046 144.924 12.5505 144.287C12.2916 143.653 11.9642 143.035 11.5098 142.504C11.0652 141.978 10.474 141.482 9.73625 141.302C9.04245 141.131 8.37307 141.112 7.70858 141.087C7.0441 141.078 6.3845 141.073 5.72979 141.107C5.40243 141.126 5.07508 141.155 4.75261 141.185C4.42525 141.214 4.10766 141.272 3.77542 141.253C4.06369 141.448 4.42037 141.496 4.74284 141.56C5.07508 141.608 5.40732 141.638 5.73468 141.652C6.39428 141.681 7.0441 141.667 7.69392 141.701C8.33398 141.735 8.98869 141.779 9.57012 141.935C10.1222 142.081 10.5815 142.475 10.9675 142.947C11.7248 143.897 12.2134 145.129 12.3649 146.346C12.4235 146.95 12.3893 147.564 12.1646 148.109C11.9496 148.654 11.5538 149.127 11.0652 149.473L11.3779 149.964Z" fill="#DC918B"/>
<path d="M12.8576 139.042C13.0139 139.612 13.3804 140.04 13.5465 140.493C13.7322 140.936 13.7566 141.423 13.6589 141.925C13.5709 142.426 13.395 142.928 13.0921 143.278C12.9407 143.454 12.755 143.575 12.54 143.639C12.3201 143.707 12.1101 143.707 11.8071 143.692V144.228C12.0465 144.243 12.3934 144.257 12.7012 144.16C13.0139 144.072 13.3022 143.882 13.5123 143.644C13.9276 143.162 14.1084 142.587 14.2305 142.027C14.3576 141.467 14.338 140.805 14.0546 140.254C13.7566 139.714 13.3364 139.354 12.8576 139.042Z" fill="#DC918B"/>
<path d="M7.72778 154.493C7.29294 154.391 6.86299 154.405 6.43791 154.4C6.01284 154.396 5.59753 154.415 5.18223 154.43C4.76693 154.449 4.35651 154.459 3.9461 154.464C3.53568 154.459 3.13504 154.459 2.70996 154.337C3.008 154.673 3.47216 154.834 3.89723 154.917C4.33208 155.004 4.77182 155.024 5.20178 155.014C5.63662 154.99 6.06169 154.946 6.48188 154.853C6.90696 154.771 7.31737 154.634 7.72778 154.493Z" fill="#DC918B"/>
<path d="M42.4961 70.479C42.4961 70.479 40.4538 58.9188 32.5533 62.8631C24.6528 66.8122 31.1364 86.4948 42.4375 84.9366C42.4375 84.9366 44.6899 81.0069 42.4961 70.479Z" fill="#F7AB8D"/>
<path d="M52.0094 128.811C47.9003 130.72 44.8075 138.039 36.3548 152.934C38.4216 156.109 44.0062 158.325 48.2325 163.024L55.3171 152.102L52.0094 128.811Z" fill="#EF3F54"/>
<path d="M95.1036 201.532L94.8593 193.293L44.8226 191.545V201.742C68.832 205.822 95.1036 201.532 95.1036 201.532Z" fill="#2B2E3A"/>
<path d="M61.2238 195.771H66.7107C67.8833 195.771 68.8361 196.721 68.8361 197.89V201.347C68.8361 202.516 67.8833 203.465 66.7107 203.465H61.2238" stroke="#545B72" stroke-width="4.0989" stroke-miterlimit="10" stroke-linejoin="round"/>
<path d="M96.7644 135.531C95.7872 129.6 90.6081 125.285 84.5789 125.32C81.3151 125.334 77.2402 122.904 73.1947 123.45C67.4342 124.287 56.1379 127.014 52.0142 128.816C45.169 143.838 47.8172 175.626 43.5909 197.052C53.3139 198.036 79.732 200.266 95.4207 196.955C90.7205 161.067 100.429 157.789 96.7644 135.531Z" fill="#EF3F54"/>
<path d="M83.4758 123.07L82.5866 110.745L63.981 114.324C63.981 114.324 65.3246 121.025 65.3637 125.821C65.3637 125.821 65.3197 126.98 65.4223 128.539C66.6487 129.069 67.963 129.415 69.3018 129.376C72.3848 129.284 79.0785 125.656 83.4758 123.07Z" fill="#DC918B"/>
<path d="M69.2955 129.376C67.9567 129.415 66.6424 129.069 65.416 128.539C65.5821 131.11 66.1343 134.776 67.9127 136.13C79.9223 135.078 83.5966 124.789 83.5966 124.789L83.4744 123.07C79.0771 125.656 72.3834 129.284 69.2955 129.376Z" fill="#FAC2A8"/>
<path d="M41.8516 19.7C33.6042 19.8461 32.7834 29.6094 31.8892 33.8362C29.202 46.5699 34.3371 68.434 34.4153 74.219C34.4153 74.2239 55.3173 19.4614 41.8516 19.7Z" fill="#2B2E3A"/>
<path d="M38.8865 23.2646C38.8865 23.2646 31.7335 96.1904 33.8443 101.566C35.955 106.947 51.756 116.253 61.1077 118.449C70.4594 120.65 90.5112 108.793 93.775 105.209C95.529 103.28 100.4 85.8086 104.255 67.957C107.563 52.6472 117.819 39.9183 117.037 33.6269C117.032 33.6221 75.5945 6.57682 38.8865 23.2646Z" fill="#FAC2A8"/>
<path d="M42.5983 61.4413C43.3068 60.4576 44.0104 59.4935 44.7872 58.617C45.183 58.1884 45.5787 57.7648 46.0185 57.4191C46.4484 57.0685 46.9175 56.7714 47.3963 56.6399C48.3491 56.3283 49.292 56.9175 50.0151 57.7989C50.748 58.6705 51.3099 59.7321 51.9109 60.7839C51.6861 59.5909 51.3197 58.4124 50.6308 57.346C50.2936 56.8104 49.8295 56.3185 49.2285 55.9582C48.6227 55.6027 47.8165 55.5102 47.1325 55.705C45.7742 56.153 44.9045 57.1561 44.196 58.1495C43.4876 59.1721 42.9501 60.2775 42.5983 61.4413Z" fill="#2B2E3A"/>
<path d="M70.4393 62.2204C71.2992 61.1978 72.1982 60.2288 73.2047 59.4448C74.1965 58.6705 75.3838 58.1057 76.4538 58.4125C76.9913 58.5439 77.4799 58.8848 77.9098 59.3133C78.1395 59.5081 78.3251 59.7711 78.5303 59.9999C78.7013 60.2677 78.9066 60.5064 79.0727 60.7839C79.7616 61.8698 80.3186 63.0677 80.9147 64.2656C80.7095 62.9411 80.343 61.6409 79.7372 60.409C79.6004 60.0924 79.4049 59.8051 79.229 59.5032C79.014 59.2208 78.8333 58.9238 78.5743 58.6657C78.0906 58.1398 77.4652 57.6723 76.7079 57.4629C75.9506 57.2633 75.1346 57.3704 74.4604 57.6577C73.7812 57.9547 73.2047 58.3784 72.7112 58.8605C71.7145 59.8392 70.9572 60.9836 70.4393 62.2204Z" fill="#2B2E3A"/>
<path d="M97.4823 72.4122C97.4823 72.4122 96.3732 76.1958 94.5117 79.9064C89.9434 88.9977 75.1097 77.8758 54.0954 80.8218C48.5743 81.5961 46.5906 83.1105 40.7519 83.7874C32.91 84.6931 35.05 69.3103 35.0207 66.4617C33.6429 84.0114 30.1006 96.9399 33.3009 103.971C35.651 109.138 51.4081 119.393 64.7076 119.642C75.7644 119.851 92.528 112.44 95.7332 108.919C97.2869 107.21 100.736 93.1222 104.288 77.5252L107.391 67.533L97.4823 72.4122Z" fill="#2B2E3A"/>
<path d="M44.8752 86.9139C44.8752 86.9139 58.5753 96.5701 79.3502 86.7678C79.3502 86.7678 71.0735 105.657 58.6437 104.79C45.9208 102.564 52.4972 95.3041 44.8752 86.9139Z" fill="#31374C"/>
<path d="M70.522 99.5988C61.0531 98.2013 55.7372 100.456 52.874 102.749C54.1541 103.626 55.9717 104.322 58.6492 104.79C63.2468 105.111 67.2728 102.73 70.522 99.5988Z" fill="#F97A7A"/>
<path d="M44.8746 86.9139C47.1808 89.4558 47.5277 90.605 48.0407 91.8516C53.5325 94.1111 62.2246 96.8039 75.8563 93.0398C78.822 88.9153 79.3546 86.7678 79.3546 86.7678C58.5748 96.5702 44.8746 86.9139 44.8746 86.9139Z" fill="white"/>
<path d="M44.8754 86.9139C46.1115 87.7563 47.4649 88.4185 48.8525 88.9883C50.2401 89.5531 51.6717 90.0157 53.1326 90.381C53.8606 90.5611 54.5984 90.717 55.3362 90.8484C56.0788 90.9702 56.8215 91.0822 57.569 91.1552C58.3166 91.2331 59.069 91.2964 59.8166 91.3159C60.569 91.3549 61.3214 91.3451 62.0739 91.3403C62.8263 91.3062 63.5787 91.2964 64.3263 91.2185C65.0787 91.1698 65.8214 91.0676 66.5689 90.975C67.3116 90.8679 68.0542 90.7413 68.7969 90.6001C69.5347 90.4443 70.2724 90.2933 70.9955 90.0937C71.7284 89.9135 72.4467 89.6992 73.1649 89.4752C73.888 89.2707 74.5916 88.9932 75.3049 88.7545C76.0134 88.5013 76.7072 88.2043 77.4059 87.9365L79.4677 87.0259L79.0964 86.6655C78.6029 87.7466 78.041 88.8178 77.4547 89.8648C76.8635 90.9117 76.2381 91.9392 75.5785 92.9374C74.2545 94.9388 72.7985 96.8623 71.1421 98.5909C69.4858 100.315 67.6291 101.873 65.5184 102.988C63.4175 104.103 61.038 104.712 58.6635 104.561L58.6879 104.566C58.1944 104.464 57.6961 104.395 57.2124 104.269C56.7238 104.162 56.2401 104.03 55.7612 103.879C55.2873 103.723 54.8134 103.563 54.3639 103.353C54.1342 103.261 53.9144 103.144 53.6945 103.027C53.4697 102.915 53.2645 102.784 53.0593 102.647C52.6391 102.384 52.2678 102.063 51.916 101.722C51.5789 101.367 51.2662 100.982 51.017 100.558C50.4991 99.7158 50.1717 98.7662 49.903 97.8021C49.3753 95.8689 48.9796 93.8578 48.1783 91.9879C47.9828 91.5204 47.763 91.0627 47.5285 90.6098C47.2939 90.1618 47.0301 89.7284 46.7565 89.2999C46.4682 88.8811 46.1848 88.4624 45.8624 88.0728C45.5594 87.6589 45.2076 87.2937 44.8754 86.9139ZM44.8754 86.9139C45.1979 87.3034 45.535 87.6833 45.8233 88.0972C46.1311 88.4965 46.4047 88.925 46.6783 89.3438C46.9421 89.7723 47.1913 90.2105 47.4161 90.6634C47.6359 91.1163 47.846 91.574 48.0268 92.0415C48.3933 92.9764 48.6766 93.9454 48.9161 94.9193C49.1604 95.8981 49.3509 96.8866 49.6099 97.8703C49.8639 98.849 50.1864 99.8375 50.719 100.729C50.973 101.182 51.3004 101.586 51.6522 101.97C52.0186 102.336 52.4095 102.681 52.8443 102.964C53.0593 103.11 53.2743 103.251 53.5039 103.368C53.7287 103.495 53.9583 103.616 54.1929 103.719C54.657 103.943 55.1407 104.113 55.6293 104.283C56.1179 104.439 56.6114 104.585 57.1098 104.702C57.6032 104.839 58.1114 104.916 58.6097 105.024H58.6146H58.6342C61.1064 105.228 63.5983 104.58 65.7676 103.441C67.9516 102.302 69.8571 100.714 71.5525 98.9659C73.248 97.208 74.7382 95.2748 76.072 93.2442C76.7365 92.2265 77.3668 91.1844 77.958 90.1277C78.5492 89.0662 79.1062 87.99 79.6094 86.8749L79.9075 86.2175L79.2381 86.5146L77.2007 87.4252C76.5069 87.6979 75.8277 87.9949 75.1241 88.2481C74.4206 88.4916 73.7268 88.7643 73.0134 88.9737C72.305 89.2025 71.5916 89.4168 70.8685 89.597C70.1552 89.8015 69.4223 89.9476 68.6992 90.1131C67.9712 90.269 67.2383 90.4004 66.5054 90.5173C65.7676 90.6244 65.0347 90.7316 64.2921 90.7949C63.5543 90.8825 62.8067 90.9069 62.0641 90.9507C61.3214 90.9653 60.5739 90.9848 59.8312 90.9556C59.0885 90.9458 58.341 90.8923 57.6032 90.829C56.8606 90.7656 56.1228 90.6683 55.385 90.5563C54.6472 90.4394 53.9144 90.303 53.1864 90.1472C51.7304 89.821 50.2988 89.3924 48.9014 88.8665C47.5138 88.326 46.1409 87.7125 44.8754 86.9139Z" fill="#494F66"/>
<path d="M75.9549 85.6916C75.9549 85.6916 76.4532 85.643 77.1666 85.7063C77.3425 85.7209 77.533 85.7452 77.7334 85.7842C77.9337 85.8085 78.134 85.8864 78.3441 85.9254C78.5444 86.0082 78.7594 86.0617 78.9499 86.1737C79.0477 86.2273 79.1503 86.2662 79.248 86.3296L79.5216 86.5243C79.717 86.6412 79.8587 86.8214 80.0249 86.9626C80.1665 87.1379 80.3033 87.3083 80.4353 87.4739C80.5379 87.6638 80.6551 87.8391 80.7577 88.0095C80.8408 88.1946 80.9239 88.3699 80.9972 88.5306C81.0753 88.6913 81.1437 88.8422 81.1828 88.9834C81.2317 89.1247 81.2756 89.2464 81.3147 89.3438C81.3929 89.5483 81.4418 89.6603 81.4418 89.6603C81.4418 89.6603 81.4369 89.5386 81.432 89.3194C81.4076 89.1052 81.432 88.7838 81.3245 88.4234C81.2805 88.2384 81.2366 88.0388 81.1682 87.8294C81.0802 87.6297 80.9874 87.4155 80.8848 87.1963C80.7529 86.9918 80.616 86.7776 80.4548 86.5779C80.2643 86.4026 80.0981 86.1883 79.8734 86.0471L79.5411 85.828C79.4288 85.7598 79.3066 85.7111 79.1894 85.6576C78.9597 85.531 78.7008 85.4969 78.4711 85.4238C78.2317 85.3897 77.9972 85.341 77.7773 85.3459C77.5575 85.3313 77.3474 85.3459 77.1617 85.3703C76.4044 85.453 75.9549 85.6916 75.9549 85.6916Z" fill="#494F66"/>
<path opacity="0.2" d="M73.9076 69.4906C73.8294 70.9465 76.1942 72.271 79.1795 72.4366C82.1697 72.607 84.6468 71.5601 84.725 70.0992C84.7983 68.6384 82.4384 67.3188 79.4531 67.1532C76.4629 66.9828 73.9809 68.0297 73.9076 69.4906Z" fill="#EF3F54"/>
<path opacity="0.2" d="M38.0396 66.0676C37.7074 67.2947 39.4761 68.8286 41.9924 69.4908C44.5135 70.158 46.8245 69.7002 47.1568 68.4682C47.489 67.2411 45.7154 65.7072 43.1992 65.0401C40.6878 64.3779 38.3768 64.8356 38.0396 66.0676Z" fill="#EF3F54"/>
<path d="M40.2729 45.4159C42.5399 43.5606 45.0415 42.314 49.5512 42.8886C51.8183 43.4583 54.2466 43.9161 52.561 41.2232C49.605 37.0549 39.6523 39.8452 37.6198 45.8493C36.4374 48.4057 38.8901 46.8816 40.2729 45.4159Z" fill="#2B2E3A"/>
<path d="M85.434 49.6767C83.8021 47.2468 81.7695 45.3331 77.2794 44.5832C74.9439 44.476 72.4863 44.2082 74.8804 42.1192C78.9161 38.9832 87.6375 44.515 87.8427 50.8551C88.2482 53.6453 86.3378 51.4784 85.434 49.6767Z" fill="#2B2E3A"/>
<path opacity="0.6" d="M66.4083 52.3403C66.4083 52.3403 59.5778 55.5201 52.5812 54.3466C52.5812 54.3466 59.5827 65.9603 50.0454 78.8597C50.0454 78.8597 58.5371 84.07 65.8122 78.996C65.8171 78.9911 62.2309 65.6974 66.4083 52.3403Z" fill="url(#paint0_linear)"/>
<path d="M97.4823 72.4125C97.4823 72.4125 100.898 62.2304 96.3928 52.0385C93.0997 44.5882 99.6224 34.6057 103.282 31.236C103.282 31.236 116.65 29.9991 117.324 30.6809C121.428 34.8345 126.055 46.9742 111.407 74.5892L97.4823 72.4125Z" fill="#2B2E3A"/>
<path d="M101.934 77.6907C101.934 77.6907 106.815 68.1562 113.567 72.7141C120.32 77.2719 113.944 100.426 98.1376 92.0898C98.1376 92.0898 94.7272 87.7316 101.934 77.6907Z" fill="#FAC2A8"/>
<path d="M111.623 81.3383C111.828 80.7734 111.926 80.155 111.887 79.5269C111.843 78.9036 111.633 78.2364 111.169 77.7154C110.71 77.1846 110.05 76.8778 109.405 76.7317C108.78 76.5759 107.993 76.5711 107.343 76.8437C106.679 77.0921 106.127 77.5157 105.667 77.9832C105.213 78.4604 104.837 78.9815 104.509 79.522C104.177 80.0576 103.918 80.6274 103.679 81.202C103.449 81.7814 103.234 82.3463 103.083 82.9745L102.941 83.5637L103.513 83.7C104.216 83.8705 104.959 84.148 105.594 84.4889C106.234 84.8249 106.796 85.307 106.874 85.8718C106.957 86.4513 106.498 87.133 105.97 87.6735C105.428 88.2287 104.798 88.7205 104.148 89.1928C104.89 88.886 105.623 88.5257 106.288 88.0339C106.62 87.7855 106.942 87.508 107.206 87.1525C107.465 86.8019 107.685 86.349 107.685 85.828C107.685 85.307 107.441 84.8249 107.143 84.4694C106.845 84.1091 106.493 83.8315 106.131 83.588C105.394 83.1157 104.631 82.804 103.801 82.5459L104.231 83.2764C104.573 82.2148 105.037 81.124 105.599 80.1599C106.161 79.1957 106.874 78.3046 107.768 77.881C108.613 77.4768 109.859 77.6229 110.641 78.2364C111.438 78.9035 111.696 80.1599 111.623 81.3383Z" fill="#DC918B"/>
<path d="M50.0502 78.8547C50.0502 78.8547 58.6787 92.3627 65.817 78.9911C65.817 78.9911 57.7846 80.9438 50.0502 78.8547Z" fill="#DC918B"/>
<path d="M65.8558 129.103C62.4601 131.733 58.312 136.705 58.312 136.705C58.312 136.705 59.4162 130.788 60.1198 127.404C60.9601 125.398 65.0594 121.356 65.0594 121.356C65.0594 121.356 65.9096 127.677 65.8558 129.103Z" fill="#BD1A3B"/>
<path d="M97.7071 130.033C94.6485 127.224 87.8815 126.152 87.8815 126.152C87.0363 125.563 78.31 134.026 83.7822 141.029C86.7187 144.783 91.9466 157.57 96.0019 165.888C99.8618 160.731 108.622 154.532 111.73 152.94C106.785 143.157 102.466 134.401 97.7071 130.033Z" fill="#EF3F54"/>
<path d="M79.5002 151.826C79.3249 151.811 79.1959 151.865 79.0364 152.058L77.1479 154.33L76.6027 151.97C76.5458 151.733 76.3986 151.643 76.2567 151.637C76.0414 151.628 75.9291 151.708 75.8042 151.9L74.0837 154.906L74.9485 154.954L76.1165 152.881L76.6485 155.053L77.3714 155.095L79.0708 153.062L78.9446 155.184L79.6869 155.228L79.8498 152.257C79.8631 151.965 79.6852 151.842 79.5002 151.826Z" fill="white"/>
<path d="M73.206 152.019L72.3457 154.808L73.1372 154.853L73.9877 152.063L73.206 152.019Z" fill="white"/>
<path d="M71.8093 152.748C71.8761 152.374 71.6803 151.93 70.8889 151.885L69.3599 151.796L68.5093 154.587L69.2911 154.631L69.6107 153.584L70.0116 153.604L70.6447 154.705L71.4998 154.752L70.7864 153.579C71.4933 153.458 71.7479 153.119 71.8093 152.748ZM70.3191 153.144L69.7624 153.111L70.0197 152.268L70.611 152.3C70.9239 152.316 71.078 152.475 71.0335 152.739C70.9824 153.018 70.7 153.167 70.3191 153.144Z" fill="white"/>
<path d="M82.9404 155.414L83.693 155.454L83.1266 152.803C83.0477 152.5 82.8708 152.412 82.6739 152.414C82.5508 152.415 82.4229 152.459 82.2862 152.625L80.2542 155.253L81.0214 155.296L81.4332 154.739L82.8306 154.818L82.9404 155.414ZM81.7834 154.293L82.5303 153.295L82.7362 154.347L81.7834 154.293Z" fill="white"/>
<path d="M86.1015 155.068C85.4676 155.022 85.1266 154.645 85.2021 154.193C85.3054 153.582 85.8896 153.241 86.6751 153.295C86.9044 153.311 87.2054 153.345 87.4713 153.429L87.6425 152.87C87.4236 152.806 87.047 152.744 86.7983 152.726C85.4501 152.648 84.5597 153.219 84.4021 154.137C84.2613 154.949 84.8109 155.57 86.0566 155.642C86.3058 155.655 86.5281 155.646 86.8363 155.617L87.0232 155.006C86.7263 155.065 86.4867 155.097 86.1015 155.068Z" fill="white"/>
<path d="M37.4782 13.0337C44.1328 8.13985 56.719 -1.75986 70.2139 0.270728C76.8978 1.39071 81.5688 2.63731 86.5719 6.26022C86.1273 5.09641 82.0769 1.5368 82.4091 0.782026C82.8196 -0.157789 117.837 14.0027 117.324 30.6905C119 33.0717 119.879 34.854 119.84 35.6185C119.65 39.256 95.391 52.7981 98.005 44.1012C100.536 36.792 101.298 35.9788 98.6402 33.5489C93.8715 29.1664 84.8667 27.652 63.4713 30.8999C53.4405 32.4241 22.7471 29.4001 24.8285 17.6743C24.8334 17.6743 30.8236 17.9276 37.4782 13.0337Z" fill="#2B2E3A"/>
<path d="M64.8354 126.552L68.622 135.531L80.0795 126.508L82.757 129.356L67.8207 141.394L63.8093 130.861L64.8354 126.552Z" fill="#BD1A3B"/>
<path d="M83.8218 121.034C83.8218 121.034 79.2779 127.165 73.5858 131.621C74.348 133.281 81.2567 137.717 81.2567 137.717L89.0057 125.359L83.8218 121.034Z" fill="#BD1A3B"/>
<path d="M87.2467 149.346C87.4812 149.604 87.6229 149.935 87.7841 150.247C87.9453 150.558 88.0919 150.88 88.2434 151.191L89.1375 153.095C89.7287 154.366 90.3394 155.632 90.9746 156.884C91.2873 157.512 91.6586 158.116 92.0104 158.72L92.5625 159.621C92.6554 159.772 92.7531 159.918 92.8361 160.073L93.0707 160.546C93.7058 161.802 94.385 163.039 95.1912 164.217C94.8149 162.839 94.3019 161.52 93.7547 160.224C93.4615 159.587 93.2319 158.91 92.9583 158.252C92.6847 157.595 92.4062 156.947 92.0837 156.319C91.4241 155.068 90.7303 153.836 89.9486 152.647C89.5577 152.053 89.157 151.464 88.7173 150.899C88.5023 150.612 88.2727 150.339 88.0382 150.067C87.8085 149.809 87.5691 149.521 87.2467 149.346Z" fill="#BD1A3B"/>
<path d="M48.7015 142.051C47.8856 145.251 47.4117 148.513 47.0941 151.79C46.7912 155.067 46.6348 158.374 46.9182 161.661C47.0257 160.015 47.1625 158.384 47.2993 156.747L47.7732 151.854L48.2813 146.96C48.4426 145.333 48.5794 143.697 48.7015 142.051Z" fill="#BD1A3B"/>
<defs>
<linearGradient id="paint0_linear" x1="64.5572" y1="51.6673" x2="54.2763" y2="80.6338" gradientUnits="userSpaceOnUse">
<stop stop-color="#FAC2A8"/>
<stop offset="0.2651" stop-color="#F7BCA5"/>
<stop offset="0.6038" stop-color="#EDAD9B"/>
<stop offset="0.981" stop-color="#DD938C"/>
<stop offset="1" stop-color="#DC918B"/>
</linearGradient>
</defs>
</svg>
